<svg width="136" height="51" viewBox="0 0 136 51" fill="none" xmlns="http://www.w3.org/2000/svg">
<g filter="url(#filter0_b_22_281)">
<rect y="0.689941" width="136" height="50" rx="10" fill="#F4BB42" fill-opacity="0.05"/>
<rect x="0.5" y="1.18994" width="135" height="49" rx="9.5" stroke="#F4BB42"/>
<g clip-path="url(#clip0_22_281)">
<path d="M25 10.6899C16.7158 10.6899 10 17.4057 10 25.6899C10 32.7243 14.8432 38.6271 21.3766 40.2483V30.2739H18.2836V25.6899H21.3766V23.7147C21.3766 18.6093 23.6872 16.2429 28.6996 16.2429C29.65 16.2429 31.2898 16.4295 31.9606 16.6155V20.7705C31.6066 20.7333 30.9916 20.7147 30.2278 20.7147C27.7684 20.7147 26.818 21.6465 26.818 24.0687V25.6899H31.7176L30.8758 30.2739H26.818V40.5801C34.2454 39.6831 40.0006 33.3591 40.0006 25.6899C40 17.4057 33.2842 10.6899 25 10.6899Z" fill="#F4BB42"/>
</g>
<path d="M51.2784 31.1899V19.5536H58.4943V21.0649H53.0341V24.6104H57.9773V26.1161H53.0341V31.1899H51.2784ZM63.0256 31.3831C62.4725 31.3831 61.9725 31.2809 61.5256 31.0763C61.0786 30.868 60.7244 30.5668 60.4631 30.1729C60.2055 29.779 60.0767 29.296 60.0767 28.724C60.0767 28.2316 60.1714 27.8263 60.3608 27.5081C60.5502 27.1899 60.8059 26.938 61.1278 26.7524C61.4498 26.5668 61.8097 26.4267 62.2074 26.332C62.6051 26.2373 63.0104 26.1653 63.4233 26.1161C63.946 26.0555 64.3703 26.0062 64.696 25.9684C65.0218 25.9267 65.2585 25.8604 65.4062 25.7695C65.554 25.6786 65.6278 25.5309 65.6278 25.3263V25.2865C65.6278 24.7903 65.4877 24.4059 65.2074 24.1331C64.9309 23.8604 64.518 23.724 63.9688 23.724C63.3968 23.724 62.946 23.8509 62.6165 24.1047C62.2907 24.3547 62.0653 24.6331 61.9403 24.9399L60.3438 24.5763C60.5331 24.046 60.8097 23.618 61.1733 23.2922C61.5407 22.9627 61.9631 22.724 62.4403 22.5763C62.9176 22.4248 63.4195 22.349 63.946 22.349C64.2945 22.349 64.6638 22.3907 65.054 22.474C65.4479 22.5536 65.8153 22.7013 66.1562 22.9172C66.5009 23.1331 66.7831 23.4418 67.0028 23.8434C67.2225 24.2411 67.3324 24.7581 67.3324 25.3945V31.1899H65.6733V29.9968H65.6051C65.4953 30.2165 65.3305 30.4324 65.1108 30.6445C64.8911 30.8566 64.6089 31.0327 64.2642 31.1729C63.9195 31.313 63.5066 31.3831 63.0256 31.3831ZM63.3949 30.0195C63.8646 30.0195 64.2661 29.9267 64.5994 29.7411C64.9366 29.5555 65.1922 29.313 65.3665 29.0138C65.5445 28.7108 65.6335 28.3869 65.6335 28.0422V26.9172C65.5729 26.9778 65.4555 27.0346 65.2812 27.0877C65.1108 27.1369 64.9157 27.1805 64.696 27.2184C64.4763 27.2524 64.2623 27.2846 64.054 27.3149C63.8456 27.3415 63.6714 27.3642 63.5312 27.3831C63.2017 27.4248 62.9006 27.4949 62.6278 27.5934C62.3589 27.6918 62.143 27.8339 61.9801 28.0195C61.821 28.2013 61.7415 28.4437 61.7415 28.7468C61.7415 29.1672 61.8968 29.4854 62.2074 29.7013C62.518 29.9134 62.9138 30.0195 63.3949 30.0195ZM73.2713 31.3661C72.4266 31.3661 71.6993 31.1748 71.0895 30.7922C70.4834 30.4059 70.0175 29.8737 69.6918 29.1956C69.366 28.5176 69.2031 27.7411 69.2031 26.8661C69.2031 25.9797 69.3698 25.1975 69.7031 24.5195C70.0365 23.8377 70.5062 23.3055 71.1122 22.9229C71.7183 22.5403 72.4323 22.349 73.2543 22.349C73.9171 22.349 74.508 22.4721 75.027 22.7184C75.5459 22.9608 75.9645 23.3017 76.2827 23.7411C76.6046 24.1805 76.7959 24.6937 76.8565 25.2809H75.2031C75.1122 24.8718 74.9039 24.5195 74.5781 24.224C74.2562 23.9286 73.8243 23.7809 73.2827 23.7809C72.8092 23.7809 72.3944 23.9059 72.0384 24.1559C71.6861 24.4021 71.4115 24.7543 71.2145 25.2127C71.0175 25.6672 70.919 26.2051 70.919 26.8263C70.919 27.4627 71.0156 28.0119 71.2088 28.474C71.402 28.9362 71.6747 29.2941 72.027 29.5479C72.383 29.8017 72.8016 29.9286 73.2827 29.9286C73.6046 29.9286 73.8963 29.8699 74.1577 29.7524C74.4228 29.6312 74.6444 29.4589 74.8224 29.2354C75.0043 29.0119 75.1312 28.743 75.2031 28.4286H76.8565C76.7959 28.993 76.6122 29.4968 76.3054 29.9399C75.9986 30.3831 75.5876 30.7316 75.0724 30.9854C74.5611 31.2392 73.9607 31.3661 73.2713 31.3661ZM82.4347 31.3661C81.5748 31.3661 80.8343 31.1824 80.2131 30.8149C79.5956 30.4437 79.1184 29.9229 78.7812 29.2524C78.4479 28.5782 78.2812 27.7884 78.2812 26.8831C78.2812 25.9892 78.4479 25.2013 78.7812 24.5195C79.1184 23.8377 79.5881 23.3055 80.1903 22.9229C80.7964 22.5403 81.5047 22.349 82.3153 22.349C82.8078 22.349 83.285 22.4305 83.7472 22.5934C84.2093 22.7562 84.6241 23.0119 84.9915 23.3604C85.3589 23.7089 85.6487 24.1615 85.8608 24.7184C86.0729 25.2714 86.179 25.9437 86.179 26.7354V27.3377H79.2415V26.0649H84.5142C84.5142 25.618 84.4233 25.2221 84.2415 24.8774C84.0597 24.529 83.804 24.2543 83.4744 24.0536C83.1487 23.8528 82.7661 23.7524 82.3267 23.7524C81.8494 23.7524 81.4328 23.8699 81.0767 24.1047C80.7244 24.3358 80.4517 24.6388 80.2585 25.0138C80.0691 25.385 79.9744 25.7884 79.9744 26.224V27.2184C79.9744 27.8017 80.0767 28.2979 80.2812 28.707C80.4896 29.1161 80.7794 29.4286 81.1506 29.6445C81.5218 29.8566 81.9555 29.9627 82.4517 29.9627C82.7737 29.9627 83.0672 29.9172 83.3324 29.8263C83.5975 29.7316 83.8267 29.5915 84.0199 29.4059C84.2131 29.2202 84.3608 28.9911 84.4631 28.7184L86.071 29.0081C85.9422 29.4816 85.7112 29.8964 85.3778 30.2524C85.0483 30.6047 84.6335 30.8793 84.1335 31.0763C83.6373 31.2695 83.071 31.3661 82.4347 31.3661ZM88.2003 31.1899V19.5536H89.8991V23.8774H90.0014C90.0999 23.6956 90.242 23.4854 90.4276 23.2468C90.6132 23.0081 90.8707 22.7998 91.2003 22.6218C91.5298 22.4399 91.9654 22.349 92.5071 22.349C93.2116 22.349 93.8404 22.5271 94.3935 22.8831C94.9465 23.2392 95.3802 23.7524 95.6946 24.4229C96.0128 25.0934 96.1719 25.9002 96.1719 26.8434C96.1719 27.7865 96.0147 28.5952 95.7003 29.2695C95.3859 29.9399 94.9541 30.457 94.4048 30.8206C93.8556 31.1805 93.2287 31.3604 92.5241 31.3604C91.9938 31.3604 91.5601 31.2714 91.223 31.0934C90.8897 30.9153 90.6283 30.707 90.4389 30.4684C90.2495 30.2297 90.1037 30.0176 90.0014 29.832H89.8594V31.1899H88.2003ZM89.8651 26.8263C89.8651 27.4399 89.9541 27.9778 90.1321 28.4399C90.3101 28.9021 90.5677 29.2638 90.9048 29.5252C91.242 29.7827 91.6548 29.9115 92.1435 29.9115C92.651 29.9115 93.0753 29.7771 93.4162 29.5081C93.7571 29.2354 94.0147 28.8661 94.1889 28.4002C94.367 27.9343 94.456 27.4096 94.456 26.8263C94.456 26.2505 94.3688 25.7335 94.1946 25.2752C94.0241 24.8168 93.7666 24.4551 93.4219 24.1899C93.081 23.9248 92.6548 23.7922 92.1435 23.7922C91.651 23.7922 91.2344 23.9191 90.8935 24.1729C90.5563 24.4267 90.3007 24.7809 90.1264 25.2354C89.9522 25.6899 89.8651 26.2202 89.8651 26.8263ZM101.756 31.3661C100.938 31.3661 100.223 31.1786 99.6136 30.8036C99.0038 30.4286 98.5303 29.904 98.1932 29.2297C97.8561 28.5555 97.6875 27.7676 97.6875 26.8661C97.6875 25.9608 97.8561 25.1691 98.1932 24.4911C98.5303 23.813 99.0038 23.2865 99.6136 22.9115C100.223 22.5365 100.938 22.349 101.756 22.349C102.574 22.349 103.288 22.5365 103.898 22.9115C104.508 23.2865 104.981 23.813 105.318 24.4911C105.655 25.1691 105.824 25.9608 105.824 26.8661C105.824 27.7676 105.655 28.5555 105.318 29.2297C104.981 29.904 104.508 30.4286 103.898 30.8036C103.288 31.1786 102.574 31.3661 101.756 31.3661ZM101.761 29.9399C102.292 29.9399 102.731 29.7998 103.08 29.5195C103.428 29.2392 103.686 28.8661 103.852 28.4002C104.023 27.9343 104.108 27.421 104.108 26.8604C104.108 26.3036 104.023 25.7922 103.852 25.3263C103.686 24.8566 103.428 24.4797 103.08 24.1956C102.731 23.9115 102.292 23.7695 101.761 23.7695C101.227 23.7695 100.784 23.9115 100.432 24.1956C100.083 24.4797 99.8239 24.8566 99.6534 25.3263C99.4867 25.7922 99.4034 26.3036 99.4034 26.8604C99.4034 27.421 99.4867 27.9343 99.6534 28.4002C99.8239 28.8661 100.083 29.2392 100.432 29.5195C100.784 29.7998 101.227 29.9399 101.761 29.9399ZM111.396 31.3661C110.578 31.3661 109.864 31.1786 109.254 30.8036C108.644 30.4286 108.171 29.904 107.834 29.2297C107.497 28.5555 107.328 27.7676 107.328 26.8661C107.328 25.9608 107.497 25.1691 107.834 24.4911C108.171 23.813 108.644 23.2865 109.254 22.9115C109.864 22.5365 110.578 22.349 111.396 22.349C112.214 22.349 112.929 22.5365 113.538 22.9115C114.148 23.2865 114.622 23.813 114.959 24.4911C115.296 25.1691 115.464 25.9608 115.464 26.8661C115.464 27.7676 115.296 28.5555 114.959 29.2297C114.622 29.904 114.148 30.4286 113.538 30.8036C112.929 31.1786 112.214 31.3661 111.396 31.3661ZM111.402 29.9399C111.932 29.9399 112.372 29.7998 112.72 29.5195C113.069 29.2392 113.326 28.8661 113.493 28.4002C113.663 27.9343 113.749 27.421 113.749 26.8604C113.749 26.3036 113.663 25.7922 113.493 25.3263C113.326 24.8566 113.069 24.4797 112.72 24.1956C112.372 23.9115 111.932 23.7695 111.402 23.7695C110.868 23.7695 110.425 23.9115 110.072 24.1956C109.724 24.4797 109.464 24.8566 109.294 25.3263C109.127 25.7922 109.044 26.3036 109.044 26.8604C109.044 27.421 109.127 27.9343 109.294 28.4002C109.464 28.8661 109.724 29.2392 110.072 29.5195C110.425 29.7998 110.868 29.9399 111.402 29.9399ZM118.923 28.2297L118.912 26.1559H119.207L122.685 22.4627H124.719L120.753 26.6672H120.486L118.923 28.2297ZM117.361 31.1899V19.5536H119.06V31.1899H117.361ZM122.872 31.1899L119.747 27.0422L120.918 25.8547L124.957 31.1899H122.872Z" fill="white"/>
</g>
<defs>
<filter id="filter0_b_22_281" x="-44" y="-43.3101" width="224" height="138" filterUnits="userSpaceOnUse" color-interpolation-filters="sRGB">
<feFlood flood-opacity="0" result="BackgroundImageFix"/>
<feGaussianBlur in="BackgroundImageFix" stdDeviation="22"/>
<feComposite in2="SourceAlpha" operator="in" result="effect1_backgroundBlur_22_281"/>
<feBlend mode="normal" in="SourceGraphic" in2="effect1_backgroundBlur_22_281" result="shape"/>
</filter>
<clipPath id="clip0_22_281">
<rect width="30" height="30" fill="white" transform="translate(10 10.6899)"/>
</clipPath>
</defs>
</svg>
