<svg width="137" height="51" viewBox="0 0 137 51" fill="none" xmlns="http://www.w3.org/2000/svg">
<g filter="url(#filter0_b_22_289)">
<rect y="0.689941" width="137" height="50" rx="10" fill="#F4BB42" fill-opacity="0.05"/>
<rect x="0.5" y="1.18994" width="136" height="49" rx="9.5" stroke="#F4BB42"/>
<g clip-path="url(#clip0_22_289)">
<path d="M25 13.3911C29.0078 13.3911 29.4824 13.4087 31.0586 13.479C32.5234 13.5435 33.3145 13.7896 33.8418 13.9946C34.5391 14.2642 35.043 14.5923 35.5645 15.1138C36.0918 15.6411 36.4141 16.1392 36.6836 16.8364C36.8887 17.3638 37.1348 18.1606 37.1992 19.6196C37.2695 21.2017 37.2871 21.6763 37.2871 25.6782C37.2871 29.686 37.2695 30.1606 37.1992 31.7368C37.1348 33.2017 36.8887 33.9927 36.6836 34.52C36.4141 35.2173 36.0859 35.7212 35.5645 36.2427C35.0371 36.77 34.5391 37.0923 33.8418 37.3618C33.3145 37.5669 32.5176 37.813 31.0586 37.8774C29.4766 37.9478 29.002 37.9653 25 37.9653C20.9922 37.9653 20.5176 37.9478 18.9414 37.8774C17.4766 37.813 16.6855 37.5669 16.1582 37.3618C15.4609 37.0923 14.957 36.7642 14.4355 36.2427C13.9082 35.7153 13.5859 35.2173 13.3164 34.52C13.1113 33.9927 12.8652 33.1958 12.8008 31.7368C12.7305 30.1548 12.7129 29.6802 12.7129 25.6782C12.7129 21.6704 12.7305 21.1958 12.8008 19.6196C12.8652 18.1548 13.1113 17.3638 13.3164 16.8364C13.5859 16.1392 13.9141 15.6353 14.4355 15.1138C14.9629 14.5864 15.4609 14.2642 16.1582 13.9946C16.6855 13.7896 17.4824 13.5435 18.9414 13.479C20.5176 13.4087 20.9922 13.3911 25 13.3911ZM25 10.6899C20.9277 10.6899 20.418 10.7075 18.8184 10.7778C17.2246 10.8481 16.1289 11.106 15.1797 11.4751C14.1895 11.8618 13.3516 12.3716 12.5195 13.2095C11.6816 14.0415 11.1719 14.8794 10.7852 15.8638C10.416 16.8188 10.1582 17.9087 10.0879 19.5024C10.0176 21.1079 10 21.6177 10 25.6899C10 29.7622 10.0176 30.272 10.0879 31.8716C10.1582 33.4653 10.416 34.561 10.7852 35.5103C11.1719 36.5005 11.6816 37.3384 12.5195 38.1704C13.3516 39.0024 14.1895 39.5181 15.1738 39.8989C16.1289 40.2681 17.2188 40.5259 18.8125 40.5962C20.4121 40.6665 20.9219 40.6841 24.9941 40.6841C29.0664 40.6841 29.5762 40.6665 31.1758 40.5962C32.7695 40.5259 33.8652 40.2681 34.8145 39.8989C35.7988 39.5181 36.6367 39.0024 37.4688 38.1704C38.3008 37.3384 38.8164 36.5005 39.1973 35.5161C39.5664 34.561 39.8242 33.4712 39.8945 31.8774C39.9648 30.2778 39.9824 29.7681 39.9824 25.6958C39.9824 21.6235 39.9648 21.1138 39.8945 19.5142C39.8242 17.9204 39.5664 16.8247 39.1973 15.8755C38.8281 14.8794 38.3184 14.0415 37.4805 13.2095C36.6484 12.3774 35.8105 11.8618 34.8262 11.481C33.8711 11.1118 32.7813 10.854 31.1875 10.7837C29.582 10.7075 29.0723 10.6899 25 10.6899Z" fill="#F4BB42"/>
<path d="M25 17.9849C20.7461 17.9849 17.2949 21.436 17.2949 25.6899C17.2949 29.9438 20.7461 33.395 25 33.395C29.2539 33.395 32.7051 29.9438 32.7051 25.6899C32.7051 21.436 29.2539 17.9849 25 17.9849ZM25 30.688C22.2402 30.688 20.002 28.4497 20.002 25.6899C20.002 22.9302 22.2402 20.6919 25 20.6919C27.7598 20.6919 29.998 22.9302 29.998 25.6899C29.998 28.4497 27.7598 30.688 25 30.688Z" fill="#F4BB42"/>
<path d="M34.8086 17.6802C34.8086 18.6763 34 19.479 33.0098 19.479C32.0137 19.479 31.2109 18.6704 31.2109 17.6802C31.2109 16.6841 32.0195 15.8813 33.0098 15.8813C34 15.8813 34.8086 16.6899 34.8086 17.6802Z" fill="#F4BB42"/>
</g>
<path d="M53.0341 19.5536V31.1899H51.2784V19.5536H53.0341ZM57.1534 26.0081V31.1899H55.4545V22.4627H57.0852V23.8831H57.1932C57.3939 23.421 57.7083 23.0498 58.1364 22.7695C58.5682 22.4892 59.1117 22.349 59.767 22.349C60.3617 22.349 60.8826 22.474 61.3295 22.724C61.7765 22.9702 62.1231 23.3377 62.3693 23.8263C62.6155 24.3149 62.7386 24.9191 62.7386 25.6388V31.1899H61.0398V25.8434C61.0398 25.2108 60.875 24.7165 60.5455 24.3604C60.2159 24.0005 59.7633 23.8206 59.1875 23.8206C58.7936 23.8206 58.4432 23.9059 58.1364 24.0763C57.8333 24.2468 57.5928 24.4968 57.4148 24.8263C57.2405 25.1521 57.1534 25.546 57.1534 26.0081ZM71.5568 24.5934L70.017 24.8661C69.9527 24.6691 69.8504 24.4816 69.7102 24.3036C69.5739 24.1255 69.3883 23.9797 69.1534 23.8661C68.9186 23.7524 68.625 23.6956 68.2727 23.6956C67.7917 23.6956 67.3902 23.8036 67.0682 24.0195C66.7462 24.2316 66.5852 24.5062 66.5852 24.8434C66.5852 25.135 66.6932 25.3699 66.9091 25.5479C67.125 25.7259 67.4735 25.8718 67.9545 25.9854L69.3409 26.3036C70.1439 26.4892 70.7424 26.7752 71.1364 27.1615C71.5303 27.5479 71.7273 28.0498 71.7273 28.6672C71.7273 29.1899 71.5758 29.6559 71.2727 30.0649C70.9735 30.4702 70.5549 30.7884 70.017 31.0195C69.483 31.2505 68.8636 31.3661 68.1591 31.3661C67.1818 31.3661 66.3845 31.1577 65.767 30.7411C65.1496 30.3206 64.7708 29.724 64.6307 28.9513L66.2727 28.7013C66.375 29.1293 66.5852 29.4532 66.9034 29.6729C67.2216 29.8888 67.6364 29.9968 68.1477 29.9968C68.7045 29.9968 69.1496 29.8812 69.483 29.6502C69.8163 29.4153 69.983 29.1293 69.983 28.7922C69.983 28.5195 69.8807 28.2903 69.6761 28.1047C69.4754 27.9191 69.1667 27.779 68.75 27.6843L67.2727 27.3604C66.4583 27.1748 65.8561 26.8793 65.4659 26.474C65.0795 26.0687 64.8864 25.5555 64.8864 24.9343C64.8864 24.4191 65.0303 23.9684 65.3182 23.582C65.6061 23.1956 66.0038 22.8945 66.5114 22.6786C67.0189 22.4589 67.6004 22.349 68.2557 22.349C69.1989 22.349 69.9413 22.5536 70.483 22.9627C71.0246 23.368 71.3826 23.9115 71.5568 24.5934ZM77.669 22.4627V23.8263H72.902V22.4627H77.669ZM74.1804 20.3718H75.8793V28.6274C75.8793 28.957 75.9285 29.2051 76.027 29.3718C76.1255 29.5346 76.2524 29.6464 76.4077 29.707C76.5668 29.7638 76.7391 29.7922 76.9247 29.7922C77.0611 29.7922 77.1804 29.7827 77.2827 29.7638C77.3849 29.7449 77.4645 29.7297 77.5213 29.7184L77.8281 31.1218C77.7296 31.1596 77.5895 31.1975 77.4077 31.2354C77.2259 31.2771 76.9986 31.2998 76.7259 31.3036C76.2789 31.3112 75.8622 31.2316 75.4759 31.0649C75.0895 30.8983 74.777 30.6407 74.5384 30.2922C74.2997 29.9437 74.1804 29.5062 74.1804 28.9797V20.3718ZM82.0881 31.3831C81.535 31.3831 81.035 31.2809 80.5881 31.0763C80.1411 30.868 79.7869 30.5668 79.5256 30.1729C79.268 29.779 79.1392 29.296 79.1392 28.724C79.1392 28.2316 79.2339 27.8263 79.4233 27.5081C79.6127 27.1899 79.8684 26.938 80.1903 26.7524C80.5123 26.5668 80.8722 26.4267 81.2699 26.332C81.6676 26.2373 82.0729 26.1653 82.4858 26.1161C83.0085 26.0555 83.4328 26.0062 83.7585 25.9684C84.0843 25.9267 84.321 25.8604 84.4688 25.7695C84.6165 25.6786 84.6903 25.5309 84.6903 25.3263V25.2865C84.6903 24.7903 84.5502 24.4059 84.2699 24.1331C83.9934 23.8604 83.5805 23.724 83.0312 23.724C82.4593 23.724 82.0085 23.8509 81.679 24.1047C81.3532 24.3547 81.1278 24.6331 81.0028 24.9399L79.4062 24.5763C79.5956 24.046 79.8722 23.618 80.2358 23.2922C80.6032 22.9627 81.0256 22.724 81.5028 22.5763C81.9801 22.4248 82.482 22.349 83.0085 22.349C83.357 22.349 83.7263 22.3907 84.1165 22.474C84.5104 22.5536 84.8778 22.7013 85.2188 22.9172C85.5634 23.1331 85.8456 23.4418 86.0653 23.8434C86.285 24.2411 86.3949 24.7581 86.3949 25.3945V31.1899H84.7358V29.9968H84.6676C84.5578 30.2165 84.393 30.4324 84.1733 30.6445C83.9536 30.8566 83.6714 31.0327 83.3267 31.1729C82.982 31.313 82.5691 31.3831 82.0881 31.3831ZM82.4574 30.0195C82.9271 30.0195 83.3286 29.9267 83.6619 29.7411C83.9991 29.5555 84.2547 29.313 84.429 29.0138C84.607 28.7108 84.696 28.3869 84.696 28.0422V26.9172C84.6354 26.9778 84.518 27.0346 84.3438 27.0877C84.1733 27.1369 83.9782 27.1805 83.7585 27.2184C83.5388 27.2524 83.3248 27.2846 83.1165 27.3149C82.9081 27.3415 82.7339 27.3642 82.5938 27.3831C82.2642 27.4248 81.9631 27.4949 81.6903 27.5934C81.4214 27.6918 81.2055 27.8339 81.0426 28.0195C80.8835 28.2013 80.804 28.4437 80.804 28.7468C80.804 29.1672 80.9593 29.4854 81.2699 29.7013C81.5805 29.9134 81.9763 30.0195 82.4574 30.0195ZM92.3168 34.6445C91.6236 34.6445 91.027 34.5536 90.527 34.3718C90.0308 34.1899 89.6255 33.9494 89.3111 33.6502C88.9967 33.3509 88.7618 33.0233 88.6065 32.6672L90.0668 32.0649C90.169 32.2316 90.3054 32.4077 90.4759 32.5934C90.6501 32.7827 90.8849 32.9437 91.1804 33.0763C91.4796 33.2089 91.8641 33.2752 92.3338 33.2752C92.9777 33.2752 93.5099 33.118 93.9304 32.8036C94.3509 32.493 94.5611 31.9968 94.5611 31.3149V29.599H94.4531C94.3509 29.7846 94.2031 29.9911 94.0099 30.2184C93.8205 30.4456 93.5592 30.6426 93.2259 30.8093C92.8925 30.9759 92.4588 31.0593 91.9247 31.0593C91.2353 31.0593 90.6141 30.8983 90.0611 30.5763C89.5118 30.2505 89.0762 29.7714 88.7543 29.1388C88.4361 28.5024 88.277 27.7202 88.277 26.7922C88.277 25.8642 88.4342 25.0687 88.7486 24.4059C89.0668 23.743 89.5024 23.2354 90.0554 22.8831C90.6084 22.5271 91.2353 22.349 91.9361 22.349C92.4777 22.349 92.9152 22.4399 93.2486 22.6218C93.5819 22.7998 93.8414 23.0081 94.027 23.2468C94.2164 23.4854 94.3622 23.6956 94.4645 23.8774H94.5895V22.4627H96.2543V31.3831C96.2543 32.1331 96.08 32.7487 95.7315 33.2297C95.383 33.7108 94.9115 34.0668 94.3168 34.2979C93.7259 34.529 93.0592 34.6445 92.3168 34.6445ZM92.2997 29.6502C92.7884 29.6502 93.2012 29.5365 93.5384 29.3093C93.8793 29.0782 94.1368 28.7487 94.3111 28.3206C94.4891 27.8888 94.5781 27.3718 94.5781 26.7695C94.5781 26.1824 94.491 25.6653 94.3168 25.2184C94.1425 24.7714 93.8868 24.4229 93.5497 24.1729C93.2126 23.9191 92.7959 23.7922 92.2997 23.7922C91.7884 23.7922 91.3622 23.9248 91.0213 24.1899C90.6804 24.4513 90.4228 24.8074 90.2486 25.2581C90.0781 25.7089 89.9929 26.2127 89.9929 26.7695C89.9929 27.3415 90.08 27.8434 90.2543 28.2752C90.4285 28.707 90.6861 29.0441 91.027 29.2865C91.3717 29.529 91.7959 29.6502 92.2997 29.6502ZM98.5327 31.1899V22.4627H100.175V23.849H100.266C100.425 23.3793 100.705 23.01 101.107 22.7411C101.512 22.4684 101.97 22.332 102.482 22.332C102.588 22.332 102.713 22.3358 102.857 22.3434C103.004 22.3509 103.12 22.3604 103.203 22.3718V23.9968C103.135 23.9778 103.014 23.957 102.839 23.9343C102.665 23.9077 102.491 23.8945 102.317 23.8945C101.915 23.8945 101.557 23.9797 101.243 24.1502C100.932 24.3168 100.686 24.5498 100.504 24.849C100.322 25.1445 100.232 25.4816 100.232 25.8604V31.1899H98.5327ZM107.135 31.3831C106.582 31.3831 106.082 31.2809 105.635 31.0763C105.188 30.868 104.834 30.5668 104.572 30.1729C104.315 29.779 104.186 29.296 104.186 28.724C104.186 28.2316 104.281 27.8263 104.47 27.5081C104.66 27.1899 104.915 26.938 105.237 26.7524C105.559 26.5668 105.919 26.4267 106.317 26.332C106.714 26.2373 107.12 26.1653 107.533 26.1161C108.055 26.0555 108.48 26.0062 108.805 25.9684C109.131 25.9267 109.368 25.8604 109.516 25.7695C109.663 25.6786 109.737 25.5309 109.737 25.3263V25.2865C109.737 24.7903 109.597 24.4059 109.317 24.1331C109.04 23.8604 108.627 23.724 108.078 23.724C107.506 23.724 107.055 23.8509 106.726 24.1047C106.4 24.3547 106.175 24.6331 106.05 24.9399L104.453 24.5763C104.643 24.046 104.919 23.618 105.283 23.2922C105.65 22.9627 106.072 22.724 106.55 22.5763C107.027 22.4248 107.529 22.349 108.055 22.349C108.404 22.349 108.773 22.3907 109.163 22.474C109.557 22.5536 109.925 22.7013 110.266 22.9172C110.61 23.1331 110.893 23.4418 111.112 23.8434C111.332 24.2411 111.442 24.7581 111.442 25.3945V31.1899H109.783V29.9968H109.714C109.605 30.2165 109.44 30.4324 109.22 30.6445C109 30.8566 108.718 31.0327 108.374 31.1729C108.029 31.313 107.616 31.3831 107.135 31.3831ZM107.504 30.0195C107.974 30.0195 108.375 29.9267 108.709 29.7411C109.046 29.5555 109.302 29.313 109.476 29.0138C109.654 28.7108 109.743 28.3869 109.743 28.0422V26.9172C109.682 26.9778 109.565 27.0346 109.391 27.0877C109.22 27.1369 109.025 27.1805 108.805 27.2184C108.586 27.2524 108.372 27.2846 108.163 27.3149C107.955 27.3415 107.781 27.3642 107.641 27.3831C107.311 27.4248 107.01 27.4949 106.737 27.5934C106.468 27.6918 106.252 27.8339 106.089 28.0195C105.93 28.2013 105.851 28.4437 105.851 28.7468C105.851 29.1672 106.006 29.4854 106.317 29.7013C106.627 29.9134 107.023 30.0195 107.504 30.0195ZM113.705 31.1899V22.4627H115.335V23.8831H115.443C115.625 23.4021 115.922 23.0271 116.335 22.7581C116.748 22.4854 117.242 22.349 117.818 22.349C118.402 22.349 118.89 22.4854 119.284 22.7581C119.682 23.0309 119.975 23.4058 120.165 23.8831H120.256C120.464 23.4172 120.795 23.046 121.25 22.7695C121.705 22.4892 122.246 22.349 122.875 22.349C123.667 22.349 124.312 22.5971 124.812 23.0934C125.316 23.5896 125.568 24.3377 125.568 25.3377V31.1899H123.869V25.4968C123.869 24.9059 123.708 24.4778 123.386 24.2127C123.064 23.9475 122.68 23.8149 122.233 23.8149C121.68 23.8149 121.25 23.9854 120.943 24.3263C120.636 24.6634 120.483 25.0971 120.483 25.6274V31.1899H118.79V25.3888C118.79 24.9153 118.642 24.5346 118.347 24.2468C118.051 23.9589 117.667 23.8149 117.193 23.8149C116.871 23.8149 116.574 23.9002 116.301 24.0706C116.032 24.2373 115.814 24.4702 115.648 24.7695C115.485 25.0687 115.403 25.4153 115.403 25.8093V31.1899H113.705Z" fill="white"/>
</g>
<defs>
<filter id="filter0_b_22_289" x="-44" y="-43.3101" width="225" height="138" filterUnits="userSpaceOnUse" color-interpolation-filters="sRGB">
<feFlood flood-opacity="0" result="BackgroundImageFix"/>
<feGaussianBlur in="BackgroundImageFix" stdDeviation="22"/>
<feComposite in2="SourceAlpha" operator="in" result="effect1_backgroundBlur_22_289"/>
<feBlend mode="normal" in="SourceGraphic" in2="effect1_backgroundBlur_22_289" result="shape"/>
</filter>
<clipPath id="clip0_22_289">
<rect width="30" height="30" fill="white" transform="translate(10 10.6899)"/>
</clipPath>
</defs>
</svg>
