<?xml version="1.0" encoding="iso-8859-1"?>
<!-- Generator: Adobe Illustrator 24.2.3, SVG Export Plug-In . SVG Version: 6.00 Build 0)  -->
<svg version="1.1" id="Layer_1" xmlns="http://www.w3.org/2000/svg" xmlns:xlink="http://www.w3.org/1999/xlink" x="0px" y="0px"
	 viewBox="0 0 100 100" style="enable-background:new 0 0 100 100;" xml:space="preserve">
<g>
	<path style="fill:#FFFFFF;" d="M67.159,96.714c-18.852,0-37.704,0-56.557,0c-0.862-0.27-1.779-0.431-2.578-0.828
		c-3.199-1.591-4.71-4.265-4.715-7.797c-0.013-9.457-0.005-18.914-0.004-28.37c0-1.429-0.055-2.862,0.022-4.287
		c0.178-3.284,1.758-5.697,4.722-7.132c0.601-0.291,0.744-0.627,0.741-1.236c-0.022-4.409-0.016-8.818-0.01-13.227
		c0.004-3.303,0.422-6.551,1.474-9.688c2.447-7.299,6.965-12.962,13.636-16.81c6.671-3.849,13.838-4.944,21.366-3.334
		c6.672,1.427,12.221,4.823,16.625,10.021c3.445,4.065,5.811,8.726,6.53,14.021c0.468,3.445,0.441,6.962,0.558,10.449
		c0.068,2.02-1.065,3.104-3.077,3.109c-3.405,0.008-6.81,0.008-10.215,0c-2.024-0.005-3.098-1.077-3.112-3.088
		c-0.013-1.946,0.047-3.895-0.037-5.837c-0.298-6.915-6.063-12.663-12.932-12.948c-7.872-0.327-14.296,5.724-14.387,13.613
		c-0.052,4.53-0.01,9.061-0.009,13.592c0,0.144,0.022,0.288,0.04,0.51c0.407,0,0.765,0,1.123,0c13.133,0,26.267-0.005,39.4,0.003
		c5.038,0.003,8.657,3.425,8.678,8.348c0.046,10.855,0.029,21.711,0.004,32.567c-0.006,2.779-1.065,5.153-3.401,6.707
		C69.893,95.834,68.463,96.179,67.159,96.714z M36.144,79.014c0,1.247-0.009,2.493,0.002,3.74c0.016,1.783,1.134,3.004,2.733,3.005
		c1.594,0.001,2.725-1.228,2.734-3.004c0.012-2.28,0.054-4.563-0.019-6.841c-0.034-1.062,0.048-1.897,1.261-2.192
		c0.252-0.061,0.47-0.273,0.696-0.426c3.595-2.436,4.565-7.209,2.252-11.068c-2.106-3.514-7.015-4.859-10.644-2.902
		c-2.975,1.604-4.519,4.146-4.446,7.49c0.073,3.364,1.805,5.789,4.85,7.225c0.47,0.222,0.603,0.473,0.592,0.96
		C36.124,76.337,36.144,77.676,36.144,79.014z"/>
	<path style="fill:#FFFFFF;" d="M96.714,28.832c-0.495,1.072-1.376,1.68-2.414,2.185c-3.243,1.575-6.461,3.202-9.68,4.826
		c-0.851,0.43-1.702,0.646-2.617,0.257c-0.975-0.414-1.552-1.165-1.677-2.206c-0.126-1.045,0.26-1.922,1.131-2.521
		c0.496-0.341,1.053-0.596,1.594-0.867c2.98-1.493,5.963-2.979,8.945-4.467c2.325-1.16,3.394-0.858,4.718,1.333
		C96.714,27.859,96.714,28.345,96.714,28.832z"/>
	<path style="fill:#FFFFFF;" d="M96.714,61.678c-0.079,0.121-0.167,0.237-0.234,0.364c-0.799,1.518-2.225,2.065-3.758,1.316
		c-3.629-1.772-7.241-3.578-10.839-5.41c-1.475-0.751-1.982-2.337-1.285-3.704c0.695-1.362,2.264-1.885,3.743-1.159
		c3.598,1.766,7.195,3.535,10.743,5.399c0.664,0.349,1.093,1.144,1.63,1.734C96.714,60.705,96.714,61.192,96.714,61.678z"/>
	<path style="fill:#FFFFFF;" d="M96.714,45.255c-0.727,1.577-1.977,2.076-3.671,2.032c-3.307-0.086-6.618-0.003-9.926-0.036
		c-2.029-0.02-3.338-1.895-2.623-3.702c0.432-1.092,1.275-1.729,2.441-1.741c3.703-0.036,7.407-0.025,11.111-0.009
		c1.358,0.006,2.094,0.909,2.669,1.995C96.714,44.282,96.714,44.768,96.714,45.255z"/>
</g>
</svg>
