<svg xmlns="http://www.w3.org/2000/svg" width="56.435" height="99.557"><g fill="#fff"><path d="M26.552 81.31a6.64 6.64 0 106.638 6.636 6.653 6.653 0 00-6.638-6.636zm0 9.959a3.318 3.318 0 113.315-3.323 3.327 3.327 0 01-3.315 3.323zm0 0M21.569 8.297h6.64a1.662 1.662 0 100-3.323h-6.64a1.662 1.662 0 100 3.323zm0 0M33.189 8.297h1.659a1.662 1.662 0 000-3.323h-1.659a1.662 1.662 0 100 3.323zm0 0"/><path d="M-.001 86.787v5.459a7.321 7.321 0 007.308 7.31h41.8a7.321 7.321 0 007.31-7.31v-22.33c0-.025.017-.05.017-.081v-1.62c0-.025-.017-.05-.017-.083v-6.327c0-.033.017-.05.017-.081V60.1c0-.031-.017-.048-.017-.081V53.7c0-.033.017-.058.017-.083v-1.62c0-.031-.017-.056-.017-.081v-6.337c0-.023.017-.048.017-.073v-1.628c0-.025-.017-.048-.017-.081v-6.328c0-.023.017-.048.017-.081V35.76c0-.025-.017-.048-.017-.073V29.35c0-.023.017-.048.017-.081v-1.62c0-.033-.017-.05-.017-.081v-6.329c0-.025.017-.048.017-.081v-1.62c0-.033-.017-.058-.017-.081v-6.329c0-.033.017-.056.017-.081v-1.628c0-.025-.017-.05-.017-.081V7.31A7.321 7.321 0 0049.109 0h-41.8A7.315 7.315 0 00.001 7.308v79.48zm3.313-73.516h49.787v63.064H3.313zm4-9.95h41.8a4 4 0 013.987 3.987v2.651H3.313V7.308a4 4 0 014-3.987zm41.8 92.921h-41.8a4 4 0 01-4-3.987V79.648h49.787v12.607a3.993 3.993 0 01-3.987 3.987zm0 0"/></g></svg>