<?xml version="1.0" encoding="iso-8859-1"?>
<!-- Generator: Adobe Illustrator 24.2.3, SVG Export Plug-In . SVG Version: 6.00 Build 0)  -->
<svg version="1.1" id="Layer_1" xmlns="http://www.w3.org/2000/svg" xmlns:xlink="http://www.w3.org/1999/xlink" x="0px" y="0px"
	 viewBox="0 0 100 100" style="enable-background:new 0 0 100 100;" xml:space="preserve">
<g>
	<path style="fill:#000000;" d="M43.986,2.3c16.039,0.034,29.025,13.066,28.998,29.102c-0.027,16.017-13.12,29.071-29.101,29.014
		c-16.029-0.057-29.051-13.129-29.007-29.117C14.92,15.266,27.971,2.266,43.986,2.3z"/>
	<path style="fill:#000000;" d="M68.881,97.88c-0.563,0-0.85,0-1.138,0c-18.311,0-36.622,0.004-54.933-0.003
		c-5.612-0.002-10.126-3.458-11.228-8.688c-0.671-3.183-0.248-6.378,0.592-9.454c3.23-11.828,10.804-19.327,22.719-22.35
		c0.467-0.118,1.121,0.016,1.543,0.273c11.638,7.09,23.27,7.123,34.902,0.017c0.584-0.356,1.094-0.524,1.757-0.308
		c1.446,0.473,2.908,0.897,4.36,1.353c0.244,0.077,0.469,0.217,0.775,0.363c-7.125,4.588-11.071,10.97-10.976,19.453
		C57.349,87.039,61.444,93.331,68.881,97.88z"/>
	<path style="fill:#000000;" d="M78.767,58.729c10.225-0.552,19.498,7.951,20.082,18.413c0.604,10.822-7.684,20.113-18.471,20.705
		c-10.922,0.6-20.181-7.783-20.623-18.845C59.32,68.15,67.793,59.078,78.767,58.729z M74.671,82.928c0,0.498-0.002,0.886,0,1.274
		c0.01,1.89-0.065,3.786,0.052,5.669c0.158,2.559,2.191,4.333,4.712,4.273c2.473-0.06,4.419-2.002,4.483-4.542
		c0.045-1.79,0.011-3.582,0.012-5.373c0-0.416,0-0.832,0-1.3c1.204,0,2.262,0,3.32,0c1.094,0,2.189,0.022,3.283-0.006
		c2.593-0.066,4.561-2.014,4.602-4.529c0.042-2.554-1.796-4.534-4.409-4.7c-0.892-0.057-1.79-0.02-2.685-0.022
		c-1.345-0.002-2.69-0.001-4.112-0.001c0-0.505,0-0.864,0-1.222c-0.001-1.824,0.035-3.649-0.013-5.472
		c-0.066-2.533-2.033-4.491-4.491-4.544c-2.494-0.054-4.533,1.756-4.707,4.294c-0.102,1.486-0.039,2.983-0.047,4.475
		c-0.004,0.785-0.001,1.571-0.001,2.47c-0.485,0-0.84,0-1.195,0c-1.791,0.001-3.583-0.036-5.372,0.011
		c-2.706,0.071-4.694,2.092-4.666,4.672c0.028,2.537,2.047,4.528,4.683,4.566C70.267,82.953,72.415,82.928,74.671,82.928z"/>
</g>
</svg>
