<svg width="132" height="51" viewBox="0 0 132 51" fill="none" xmlns="http://www.w3.org/2000/svg">
<g filter="url(#filter0_b_22_295)">
<rect y="0.689941" width="132" height="50" rx="10" fill="#F4BB42" fill-opacity="0.05"/>
<rect x="0.5" y="1.18994" width="131" height="49" rx="9.5" stroke="#F4BB42"/>
<g clip-path="url(#clip0_22_295)">
<path fill-rule="evenodd" clip-rule="evenodd" d="M40 25.6899C40 33.9742 33.2843 40.6899 25 40.6899C16.7157 40.6899 10 33.9742 10 25.6899C10 17.4057 16.7157 10.6899 25 10.6899C33.2843 10.6899 40 17.4057 40 25.6899ZM25.5374 21.7636C24.0785 22.3705 21.1626 23.6265 16.7898 25.5316C16.0797 25.814 15.7077 26.0902 15.6739 26.3604C15.6166 26.8168 16.1883 26.9966 16.9668 27.2414C17.0726 27.2747 17.1824 27.3092 17.2948 27.3457C18.0607 27.5947 19.0909 27.8859 19.6265 27.8975C20.1123 27.908 20.6546 27.7077 21.2532 27.2966C25.3389 24.5387 27.4479 23.1447 27.5803 23.1147C27.6737 23.0935 27.8032 23.0668 27.8909 23.1448C27.9786 23.2227 27.9699 23.3704 27.9607 23.41C27.904 23.6514 25.6601 25.7376 24.4988 26.8172C24.1368 27.1538 23.88 27.3925 23.8275 27.447C23.7099 27.5692 23.5901 27.6847 23.4749 27.7957C22.7634 28.4816 22.2298 28.996 23.5044 29.836C24.117 30.2396 24.6071 30.5734 25.0961 30.9064C25.6301 31.2701 26.1628 31.6328 26.8519 32.0846C27.0275 32.1996 27.1952 32.3192 27.3585 32.4356C27.98 32.8787 28.5383 33.2767 29.2281 33.2133C29.629 33.1764 30.043 32.7995 30.2533 31.6754C30.7502 29.0189 31.7269 23.263 31.9527 20.8912C31.9725 20.6834 31.9476 20.4174 31.9276 20.3007C31.9076 20.1839 31.8659 20.0176 31.7141 19.8945C31.5344 19.7486 31.257 19.7179 31.1329 19.7201C30.5687 19.73 29.7031 20.031 25.5374 21.7636Z" fill="#F4BB42"/>
</g>
<path d="M50.7045 21.0649V19.5536H59.7102V21.0649H56.0795V31.1899H54.3295V21.0649H50.7045ZM64.0597 31.3661C63.1998 31.3661 62.4593 31.1824 61.8381 30.8149C61.2206 30.4437 60.7434 29.9229 60.4062 29.2524C60.0729 28.5782 59.9062 27.7884 59.9062 26.8831C59.9062 25.9892 60.0729 25.2013 60.4062 24.5195C60.7434 23.8377 61.2131 23.3055 61.8153 22.9229C62.4214 22.5403 63.1297 22.349 63.9403 22.349C64.4328 22.349 64.91 22.4305 65.3722 22.5934C65.8343 22.7562 66.2491 23.0119 66.6165 23.3604C66.9839 23.7089 67.2737 24.1615 67.4858 24.7184C67.6979 25.2714 67.804 25.9437 67.804 26.7354V27.3377H60.8665V26.0649H66.1392C66.1392 25.618 66.0483 25.2221 65.8665 24.8774C65.6847 24.529 65.429 24.2543 65.0994 24.0536C64.7737 23.8528 64.3911 23.7524 63.9517 23.7524C63.4744 23.7524 63.0578 23.8699 62.7017 24.1047C62.3494 24.3358 62.0767 24.6388 61.8835 25.0138C61.6941 25.385 61.5994 25.7884 61.5994 26.224V27.2184C61.5994 27.8017 61.7017 28.2979 61.9062 28.707C62.1146 29.1161 62.4044 29.4286 62.7756 29.6445C63.1468 29.8566 63.5805 29.9627 64.0767 29.9627C64.3987 29.9627 64.6922 29.9172 64.9574 29.8263C65.2225 29.7316 65.4517 29.5915 65.6449 29.4059C65.8381 29.2202 65.9858 28.9911 66.0881 28.7184L67.696 29.0081C67.5672 29.4816 67.3362 29.8964 67.0028 30.2524C66.6733 30.6047 66.2585 30.8793 65.7585 31.0763C65.2623 31.2695 64.696 31.3661 64.0597 31.3661ZM71.3878 19.5536V31.1899H69.6889V19.5536H71.3878ZM77.4347 31.3661C76.5748 31.3661 75.8343 31.1824 75.2131 30.8149C74.5956 30.4437 74.1184 29.9229 73.7812 29.2524C73.4479 28.5782 73.2812 27.7884 73.2812 26.8831C73.2812 25.9892 73.4479 25.2013 73.7812 24.5195C74.1184 23.8377 74.5881 23.3055 75.1903 22.9229C75.7964 22.5403 76.5047 22.349 77.3153 22.349C77.8078 22.349 78.285 22.4305 78.7472 22.5934C79.2093 22.7562 79.6241 23.0119 79.9915 23.3604C80.3589 23.7089 80.6487 24.1615 80.8608 24.7184C81.0729 25.2714 81.179 25.9437 81.179 26.7354V27.3377H74.2415V26.0649H79.5142C79.5142 25.618 79.4233 25.2221 79.2415 24.8774C79.0597 24.529 78.804 24.2543 78.4744 24.0536C78.1487 23.8528 77.7661 23.7524 77.3267 23.7524C76.8494 23.7524 76.4328 23.8699 76.0767 24.1047C75.7244 24.3358 75.4517 24.6388 75.2585 25.0138C75.0691 25.385 74.9744 25.7884 74.9744 26.224V27.2184C74.9744 27.8017 75.0767 28.2979 75.2812 28.707C75.4896 29.1161 75.7794 29.4286 76.1506 29.6445C76.5218 29.8566 76.9555 29.9627 77.4517 29.9627C77.7737 29.9627 78.0672 29.9172 78.3324 29.8263C78.5975 29.7316 78.8267 29.5915 79.0199 29.4059C79.2131 29.2202 79.3608 28.9911 79.4631 28.7184L81.071 29.0081C80.9422 29.4816 80.7112 29.8964 80.3778 30.2524C80.0483 30.6047 79.6335 30.8793 79.1335 31.0763C78.6373 31.2695 78.071 31.3661 77.4347 31.3661ZM86.723 34.6445C86.0298 34.6445 85.4332 34.5536 84.9332 34.3718C84.437 34.1899 84.0317 33.9494 83.7173 33.6502C83.4029 33.3509 83.1681 33.0233 83.0128 32.6672L84.473 32.0649C84.5753 32.2316 84.7116 32.4077 84.8821 32.5934C85.0563 32.7827 85.2912 32.9437 85.5866 33.0763C85.8859 33.2089 86.2704 33.2752 86.7401 33.2752C87.384 33.2752 87.9162 33.118 88.3366 32.8036C88.7571 32.493 88.9673 31.9968 88.9673 31.3149V29.599H88.8594C88.7571 29.7846 88.6094 29.9911 88.4162 30.2184C88.2268 30.4456 87.9654 30.6426 87.6321 30.8093C87.2988 30.9759 86.8651 31.0593 86.331 31.0593C85.6416 31.0593 85.0204 30.8983 84.4673 30.5763C83.9181 30.2505 83.4825 29.7714 83.1605 29.1388C82.8423 28.5024 82.6832 27.7202 82.6832 26.7922C82.6832 25.8642 82.8404 25.0687 83.1548 24.4059C83.473 23.743 83.9086 23.2354 84.4616 22.8831C85.0147 22.5271 85.6416 22.349 86.3423 22.349C86.884 22.349 87.3215 22.4399 87.6548 22.6218C87.9882 22.7998 88.2476 23.0081 88.4332 23.2468C88.6226 23.4854 88.7685 23.6956 88.8707 23.8774H88.9957V22.4627H90.6605V31.3831C90.6605 32.1331 90.4863 32.7487 90.1378 33.2297C89.7893 33.7108 89.3177 34.0668 88.723 34.2979C88.1321 34.529 87.4654 34.6445 86.723 34.6445ZM86.706 29.6502C87.1946 29.6502 87.6075 29.5365 87.9446 29.3093C88.2855 29.0782 88.5431 28.7487 88.7173 28.3206C88.8954 27.8888 88.9844 27.3718 88.9844 26.7695C88.9844 26.1824 88.8973 25.6653 88.723 25.2184C88.5488 24.7714 88.2931 24.4229 87.956 24.1729C87.6188 23.9191 87.2022 23.7922 86.706 23.7922C86.1946 23.7922 85.7685 23.9248 85.4276 24.1899C85.0866 24.4513 84.8291 24.8074 84.6548 25.2581C84.4844 25.7089 84.3991 26.2127 84.3991 26.7695C84.3991 27.3415 84.4863 27.8434 84.6605 28.2752C84.8348 28.707 85.0923 29.0441 85.4332 29.2865C85.7779 29.529 86.2022 29.6502 86.706 29.6502ZM92.9389 31.1899V22.4627H94.581V23.849H94.6719C94.831 23.3793 95.1113 23.01 95.5128 22.7411C95.9181 22.4684 96.3764 22.332 96.8878 22.332C96.9938 22.332 97.1188 22.3358 97.2628 22.3434C97.4105 22.3509 97.526 22.3604 97.6094 22.3718V23.9968C97.5412 23.9778 97.42 23.957 97.2457 23.9343C97.0715 23.9077 96.8973 23.8945 96.723 23.8945C96.3215 23.8945 95.9635 23.9797 95.6491 24.1502C95.3385 24.3168 95.0923 24.5498 94.9105 24.849C94.7287 25.1445 94.6378 25.4816 94.6378 25.8604V31.1899H92.9389ZM101.541 31.3831C100.988 31.3831 100.488 31.2809 100.041 31.0763C99.5942 30.868 99.2401 30.5668 98.9787 30.1729C98.7211 29.779 98.5923 29.296 98.5923 28.724C98.5923 28.2316 98.687 27.8263 98.8764 27.5081C99.0658 27.1899 99.3215 26.938 99.6435 26.7524C99.9654 26.5668 100.325 26.4267 100.723 26.332C101.121 26.2373 101.526 26.1653 101.939 26.1161C102.462 26.0555 102.886 26.0062 103.212 25.9684C103.537 25.9267 103.774 25.8604 103.922 25.7695C104.07 25.6786 104.143 25.5309 104.143 25.3263V25.2865C104.143 24.7903 104.003 24.4059 103.723 24.1331C103.446 23.8604 103.034 23.724 102.484 23.724C101.912 23.724 101.462 23.8509 101.132 24.1047C100.806 24.3547 100.581 24.6331 100.456 24.9399L98.8594 24.5763C99.0488 24.046 99.3253 23.618 99.6889 23.2922C100.056 22.9627 100.479 22.724 100.956 22.5763C101.433 22.4248 101.935 22.349 102.462 22.349C102.81 22.349 103.179 22.3907 103.57 22.474C103.964 22.5536 104.331 22.7013 104.672 22.9172C105.017 23.1331 105.299 23.4418 105.518 23.8434C105.738 24.2411 105.848 24.7581 105.848 25.3945V31.1899H104.189V29.9968H104.121C104.011 30.2165 103.846 30.4324 103.626 30.6445C103.407 30.8566 103.125 31.0327 102.78 31.1729C102.435 31.313 102.022 31.3831 101.541 31.3831ZM101.911 30.0195C102.38 30.0195 102.782 29.9267 103.115 29.7411C103.452 29.5555 103.708 29.313 103.882 29.0138C104.06 28.7108 104.149 28.3869 104.149 28.0422V26.9172C104.089 26.9778 103.971 27.0346 103.797 27.0877C103.626 27.1369 103.431 27.1805 103.212 27.2184C102.992 27.2524 102.778 27.2846 102.57 27.3149C102.361 27.3415 102.187 27.3642 102.047 27.3831C101.717 27.4248 101.416 27.4949 101.143 27.5934C100.875 27.6918 100.659 27.8339 100.496 28.0195C100.337 28.2013 100.257 28.4437 100.257 28.7468C100.257 29.1672 100.412 29.4854 100.723 29.7013C101.034 29.9134 101.429 30.0195 101.911 30.0195ZM108.111 31.1899V22.4627H109.741V23.8831H109.849C110.031 23.4021 110.329 23.0271 110.741 22.7581C111.154 22.4854 111.649 22.349 112.224 22.349C112.808 22.349 113.296 22.4854 113.69 22.7581C114.088 23.0309 114.382 23.4058 114.571 23.8831H114.662C114.87 23.4172 115.202 23.046 115.656 22.7695C116.111 22.4892 116.652 22.349 117.281 22.349C118.073 22.349 118.719 22.5971 119.219 23.0934C119.723 23.5896 119.974 24.3377 119.974 25.3377V31.1899H118.276V25.4968C118.276 24.9059 118.115 24.4778 117.793 24.2127C117.471 23.9475 117.086 23.8149 116.639 23.8149C116.086 23.8149 115.656 23.9854 115.349 24.3263C115.043 24.6634 114.889 25.0971 114.889 25.6274V31.1899H113.196V25.3888C113.196 24.9153 113.048 24.5346 112.753 24.2468C112.457 23.9589 112.073 23.8149 111.599 23.8149C111.277 23.8149 110.98 23.9002 110.707 24.0706C110.438 24.2373 110.221 24.4702 110.054 24.7695C109.891 25.0687 109.81 25.4153 109.81 25.8093V31.1899H108.111Z" fill="white"/>
</g>
<defs>
<filter id="filter0_b_22_295" x="-44" y="-43.3101" width="220" height="138" filterUnits="userSpaceOnUse" color-interpolation-filters="sRGB">
<feFlood flood-opacity="0" result="BackgroundImageFix"/>
<feGaussianBlur in="BackgroundImageFix" stdDeviation="22"/>
<feComposite in2="SourceAlpha" operator="in" result="effect1_backgroundBlur_22_295"/>
<feBlend mode="normal" in="SourceGraphic" in2="effect1_backgroundBlur_22_295" result="shape"/>
</filter>
<clipPath id="clip0_22_295">
<rect width="30" height="30" fill="white" transform="translate(10 10.6899)"/>
</clipPath>
</defs>
</svg>
