<svg width="138" height="51" viewBox="0 0 138 51" fill="none" xmlns="http://www.w3.org/2000/svg">
<g filter="url(#filter0_b_22_277)">
<rect y="0.689941" width="138" height="49.9999" rx="10" fill="#F4BB42" fill-opacity="0.05"/>
<rect x="0.5" y="1.18994" width="137" height="48.9999" rx="9.5" stroke="#F4BB42"/>
<path d="M9.99998 40.6899L12.1087 32.9861C10.8075 30.7311 10.1237 28.1749 10.125 25.5537C10.1287 17.3587 16.7975 10.6899 24.9912 10.6899C28.9674 10.6912 32.6999 12.2399 35.5074 15.0499C38.3137 17.8599 39.8587 21.5949 39.8574 25.5674C39.8537 33.7636 33.1849 40.4324 24.9912 40.4324C22.5037 40.4311 20.0525 39.8074 17.8812 38.6224L9.99998 40.6899ZM18.2462 35.9311C20.3412 37.1749 22.3412 37.9199 24.9862 37.9211C31.7962 37.9211 37.3437 32.3786 37.3474 25.5649C37.3499 18.7374 31.8287 13.2024 24.9962 13.1999C18.1812 13.1999 12.6375 18.7424 12.635 25.5549C12.6337 28.3362 13.4487 30.4186 14.8175 32.5974L13.5687 37.1574L18.2462 35.9311ZM32.4799 29.1012C32.3874 28.9462 32.1399 28.8537 31.7674 28.6674C31.3962 28.4812 29.5699 27.5824 29.2287 27.4587C28.8887 27.3349 28.6412 27.2724 28.3924 27.6449C28.1449 28.0162 27.4324 28.8537 27.2162 29.1012C26.9999 29.3486 26.7824 29.3799 26.4112 29.1937C26.0399 29.0074 24.8425 28.6162 23.4237 27.3499C22.32 26.3649 21.5737 25.1487 21.3575 24.7762C21.1412 24.4049 21.335 24.2037 21.52 24.0187C21.6875 23.8524 21.8912 23.5849 22.0775 23.3674C22.2662 23.1524 22.3275 22.9974 22.4525 22.7487C22.5762 22.5012 22.515 22.2837 22.4212 22.0974C22.3275 21.9124 21.585 20.0837 21.2762 19.3399C20.9737 18.6162 20.6675 18.7137 20.44 18.7024L19.7275 18.6899C19.48 18.6899 19.0775 18.7824 18.7375 19.1549C18.3975 19.5274 17.4375 20.4249 17.4375 22.2537C17.4375 24.0824 18.7687 25.8487 18.9537 26.0962C19.14 26.3437 21.5725 30.0961 25.2987 31.7049C26.1849 32.0874 26.8774 32.3161 27.4162 32.4874C28.3062 32.7699 29.1162 32.7299 29.7562 32.6349C30.4699 32.5286 31.9537 31.7361 32.2637 30.8686C32.5737 29.9999 32.5737 29.2562 32.4799 29.1012Z" fill="#F4BB42"/>
<path d="M53.5568 31.1899L50.3295 19.5536H52.1761L54.4432 28.5649H54.5511L56.9091 19.5536H58.7386L61.0966 28.5706H61.2045L63.4659 19.5536H65.3182L62.0852 31.1899H60.3182L57.8693 22.474H57.7784L55.3295 31.1899H53.5568ZM68.4815 26.0081V31.1899H66.7827V19.5536H68.4588V23.8831H68.5668C68.7713 23.4134 69.0838 23.0403 69.5043 22.7638C69.9247 22.4873 70.474 22.349 71.152 22.349C71.7505 22.349 72.2732 22.4721 72.7202 22.7184C73.1709 22.9646 73.5194 23.332 73.7656 23.8206C74.0156 24.3055 74.1406 24.9115 74.1406 25.6388V31.1899H72.4418V25.8434C72.4418 25.2032 72.277 24.707 71.9474 24.3547C71.6179 23.9987 71.1596 23.8206 70.5724 23.8206C70.1709 23.8206 69.8111 23.9059 69.4929 24.0763C69.1785 24.2468 68.9304 24.4968 68.7486 24.8263C68.5705 25.1521 68.4815 25.546 68.4815 26.0081ZM78.9474 31.3831C78.3944 31.3831 77.8944 31.2809 77.4474 31.0763C77.0005 30.868 76.6463 30.5668 76.3849 30.1729C76.1274 29.779 75.9986 29.296 75.9986 28.724C75.9986 28.2316 76.0933 27.8263 76.2827 27.5081C76.4721 27.1899 76.7277 26.938 77.0497 26.7524C77.3717 26.5668 77.7315 26.4267 78.1293 26.332C78.527 26.2373 78.9323 26.1653 79.3452 26.1161C79.8679 26.0555 80.2921 26.0062 80.6179 25.9684C80.9437 25.9267 81.1804 25.8604 81.3281 25.7695C81.4759 25.6786 81.5497 25.5309 81.5497 25.3263V25.2865C81.5497 24.7903 81.4096 24.4059 81.1293 24.1331C80.8527 23.8604 80.4399 23.724 79.8906 23.724C79.3187 23.724 78.8679 23.8509 78.5384 24.1047C78.2126 24.3547 77.9872 24.6331 77.8622 24.9399L76.2656 24.5763C76.455 24.046 76.7315 23.618 77.0952 23.2922C77.4626 22.9627 77.8849 22.724 78.3622 22.5763C78.8395 22.4248 79.3414 22.349 79.8679 22.349C80.2164 22.349 80.5857 22.3907 80.9759 22.474C81.3698 22.5536 81.7372 22.7013 82.0781 22.9172C82.4228 23.1331 82.705 23.4418 82.9247 23.8434C83.1444 24.2411 83.2543 24.7581 83.2543 25.3945V31.1899H81.5952V29.9968H81.527C81.4171 30.2165 81.2524 30.4324 81.0327 30.6445C80.813 30.8566 80.5308 31.0327 80.1861 31.1729C79.8414 31.313 79.4285 31.3831 78.9474 31.3831ZM79.3168 30.0195C79.7865 30.0195 80.188 29.9267 80.5213 29.7411C80.8584 29.5555 81.1141 29.313 81.2884 29.0138C81.4664 28.7108 81.5554 28.3869 81.5554 28.0422V26.9172C81.4948 26.9778 81.3774 27.0346 81.2031 27.0877C81.0327 27.1369 80.8376 27.1805 80.6179 27.2184C80.3982 27.2524 80.1842 27.2846 79.9759 27.3149C79.7675 27.3415 79.5933 27.3642 79.4531 27.3831C79.1236 27.4248 78.8224 27.4949 78.5497 27.5934C78.2808 27.6918 78.0649 27.8339 77.902 28.0195C77.7429 28.2013 77.6634 28.4437 77.6634 28.7468C77.6634 29.1672 77.8187 29.4854 78.1293 29.7013C78.4399 29.9134 78.8357 30.0195 79.3168 30.0195ZM89.5909 22.4627V23.8263H84.8239V22.4627H89.5909ZM86.1023 20.3718H87.8011V28.6274C87.8011 28.957 87.8504 29.2051 87.9489 29.3718C88.0473 29.5346 88.1742 29.6464 88.3295 29.707C88.4886 29.7638 88.661 29.7922 88.8466 29.7922C88.983 29.7922 89.1023 29.7827 89.2045 29.7638C89.3068 29.7449 89.3864 29.7297 89.4432 29.7184L89.75 31.1218C89.6515 31.1596 89.5114 31.1975 89.3295 31.2354C89.1477 31.2771 88.9205 31.2998 88.6477 31.3036C88.2008 31.3112 87.7841 31.2316 87.3977 31.0649C87.0114 30.8983 86.6989 30.6407 86.4602 30.2922C86.2216 29.9437 86.1023 29.5062 86.1023 28.9797V20.3718ZM97.8693 24.5934L96.3295 24.8661C96.2652 24.6691 96.1629 24.4816 96.0227 24.3036C95.8864 24.1255 95.7008 23.9797 95.4659 23.8661C95.2311 23.7524 94.9375 23.6956 94.5852 23.6956C94.1042 23.6956 93.7027 23.8036 93.3807 24.0195C93.0587 24.2316 92.8977 24.5062 92.8977 24.8434C92.8977 25.135 93.0057 25.3699 93.2216 25.5479C93.4375 25.7259 93.786 25.8718 94.267 25.9854L95.6534 26.3036C96.4564 26.4892 97.0549 26.7752 97.4489 27.1615C97.8428 27.5479 98.0398 28.0498 98.0398 28.6672C98.0398 29.1899 97.8883 29.6559 97.5852 30.0649C97.286 30.4702 96.8674 30.7884 96.3295 31.0195C95.7955 31.2505 95.1761 31.3661 94.4716 31.3661C93.4943 31.3661 92.697 31.1577 92.0795 30.7411C91.4621 30.3206 91.0833 29.724 90.9432 28.9513L92.5852 28.7013C92.6875 29.1293 92.8977 29.4532 93.2159 29.6729C93.5341 29.8888 93.9489 29.9968 94.4602 29.9968C95.017 29.9968 95.4621 29.8812 95.7955 29.6502C96.1288 29.4153 96.2955 29.1293 96.2955 28.7922C96.2955 28.5195 96.1932 28.2903 95.9886 28.1047C95.7879 27.9191 95.4792 27.779 95.0625 27.6843L93.5852 27.3604C92.7708 27.1748 92.1686 26.8793 91.7784 26.474C91.392 26.0687 91.1989 25.5555 91.1989 24.9343C91.1989 24.4191 91.3428 23.9684 91.6307 23.582C91.9186 23.1956 92.3163 22.8945 92.8239 22.6786C93.3314 22.4589 93.9129 22.349 94.5682 22.349C95.5114 22.349 96.2538 22.5536 96.7955 22.9627C97.3371 23.368 97.6951 23.9115 97.8693 24.5934ZM102.447 31.3831C101.894 31.3831 101.394 31.2809 100.947 31.0763C100.5 30.868 100.146 30.5668 99.8849 30.1729C99.6274 29.779 99.4986 29.296 99.4986 28.724C99.4986 28.2316 99.5933 27.8263 99.7827 27.5081C99.9721 27.1899 100.228 26.938 100.55 26.7524C100.872 26.5668 101.232 26.4267 101.629 26.332C102.027 26.2373 102.432 26.1653 102.845 26.1161C103.368 26.0555 103.792 26.0062 104.118 25.9684C104.444 25.9267 104.68 25.8604 104.828 25.7695C104.976 25.6786 105.05 25.5309 105.05 25.3263V25.2865C105.05 24.7903 104.91 24.4059 104.629 24.1331C104.353 23.8604 103.94 23.724 103.391 23.724C102.819 23.724 102.368 23.8509 102.038 24.1047C101.713 24.3547 101.487 24.6331 101.362 24.9399L99.7656 24.5763C99.955 24.046 100.232 23.618 100.595 23.2922C100.963 22.9627 101.385 22.724 101.862 22.5763C102.339 22.4248 102.841 22.349 103.368 22.349C103.716 22.349 104.086 22.3907 104.476 22.474C104.87 22.5536 105.237 22.7013 105.578 22.9172C105.923 23.1331 106.205 23.4418 106.425 23.8434C106.644 24.2411 106.754 24.7581 106.754 25.3945V31.1899H105.095V29.9968H105.027C104.917 30.2165 104.752 30.4324 104.533 30.6445C104.313 30.8566 104.031 31.0327 103.686 31.1729C103.341 31.313 102.929 31.3831 102.447 31.3831ZM102.817 30.0195C103.286 30.0195 103.688 29.9267 104.021 29.7411C104.358 29.5555 104.614 29.313 104.788 29.0138C104.966 28.7108 105.055 28.3869 105.055 28.0422V26.9172C104.995 26.9778 104.877 27.0346 104.703 27.0877C104.533 27.1369 104.338 27.1805 104.118 27.2184C103.898 27.2524 103.684 27.2846 103.476 27.3149C103.268 27.3415 103.093 27.3642 102.953 27.3831C102.624 27.4248 102.322 27.4949 102.05 27.5934C101.781 27.6918 101.565 27.8339 101.402 28.0195C101.243 28.2013 101.163 28.4437 101.163 28.7468C101.163 29.1672 101.319 29.4854 101.629 29.7013C101.94 29.9134 102.336 30.0195 102.817 30.0195ZM109.017 34.4627V22.4627H110.676V23.8774H110.818C110.917 23.6956 111.059 23.4854 111.244 23.2468C111.43 23.0081 111.688 22.7998 112.017 22.6218C112.347 22.4399 112.782 22.349 113.324 22.349C114.028 22.349 114.657 22.5271 115.21 22.8831C115.763 23.2392 116.197 23.7524 116.511 24.4229C116.83 25.0934 116.989 25.9002 116.989 26.8434C116.989 27.7865 116.831 28.5952 116.517 29.2695C116.203 29.9399 115.771 30.457 115.222 30.8206C114.672 31.1805 114.045 31.3604 113.341 31.3604C112.811 31.3604 112.377 31.2714 112.04 31.0934C111.706 30.9153 111.445 30.707 111.256 30.4684C111.066 30.2297 110.92 30.0176 110.818 29.832H110.716V34.4627H109.017ZM110.682 26.8263C110.682 27.4399 110.771 27.9778 110.949 28.4399C111.127 28.9021 111.384 29.2638 111.722 29.5252C112.059 29.7827 112.472 29.9115 112.96 29.9115C113.468 29.9115 113.892 29.7771 114.233 29.5081C114.574 29.2354 114.831 28.8661 115.006 28.4002C115.184 27.9343 115.273 27.4096 115.273 26.8263C115.273 26.2505 115.186 25.7335 115.011 25.2752C114.841 24.8168 114.583 24.4551 114.239 24.1899C113.898 23.9248 113.472 23.7922 112.96 23.7922C112.468 23.7922 112.051 23.9191 111.71 24.1729C111.373 24.4267 111.117 24.7809 110.943 25.2354C110.769 25.6899 110.682 26.2202 110.682 26.8263ZM118.892 34.4627V22.4627H120.551V23.8774H120.693C120.792 23.6956 120.934 23.4854 121.119 23.2468C121.305 23.0081 121.563 22.7998 121.892 22.6218C122.222 22.4399 122.657 22.349 123.199 22.349C123.903 22.349 124.532 22.5271 125.085 22.8831C125.638 23.2392 126.072 23.7524 126.386 24.4229C126.705 25.0934 126.864 25.9002 126.864 26.8434C126.864 27.7865 126.706 28.5952 126.392 29.2695C126.078 29.9399 125.646 30.457 125.097 30.8206C124.547 31.1805 123.92 31.3604 123.216 31.3604C122.686 31.3604 122.252 31.2714 121.915 31.0934C121.581 30.9153 121.32 30.707 121.131 30.4684C120.941 30.2297 120.795 30.0176 120.693 29.832H120.591V34.4627H118.892ZM120.557 26.8263C120.557 27.4399 120.646 27.9778 120.824 28.4399C121.002 28.9021 121.259 29.2638 121.597 29.5252C121.934 29.7827 122.347 29.9115 122.835 29.9115C123.343 29.9115 123.767 29.7771 124.108 29.5081C124.449 29.2354 124.706 28.8661 124.881 28.4002C125.059 27.9343 125.148 27.4096 125.148 26.8263C125.148 26.2505 125.061 25.7335 124.886 25.2752C124.716 24.8168 124.458 24.4551 124.114 24.1899C123.773 23.9248 123.347 23.7922 122.835 23.7922C122.343 23.7922 121.926 23.9191 121.585 24.1729C121.248 24.4267 120.992 24.7809 120.818 25.2354C120.644 25.6899 120.557 26.2202 120.557 26.8263Z" fill="white"/>
</g>
<defs>
<filter id="filter0_b_22_277" x="-44" y="-43.3101" width="226" height="138" filterUnits="userSpaceOnUse" color-interpolation-filters="sRGB">
<feFlood flood-opacity="0" result="BackgroundImageFix"/>
<feGaussianBlur in="BackgroundImageFix" stdDeviation="22"/>
<feComposite in2="SourceAlpha" operator="in" result="effect1_backgroundBlur_22_277"/>
<feBlend mode="normal" in="SourceGraphic" in2="effect1_backgroundBlur_22_277" result="shape"/>
</filter>
</defs>
</svg>
