<svg width="124" height="51" viewBox="0 0 124 51" fill="none" xmlns="http://www.w3.org/2000/svg">
<g filter="url(#filter0_b_22_301)">
<rect y="0.689941" width="124" height="50" rx="10" fill="#F4BB42" fill-opacity="0.05"/>
<rect x="0.5" y="1.18994" width="123" height="49" rx="9.5" stroke="#F4BB42"/>
<g clip-path="url(#clip0_22_301)">
<path fill-rule="evenodd" clip-rule="evenodd" d="M38.4332 16.7326C38.8986 17.2011 39.2329 17.7836 39.4025 18.4218C40.0298 20.7775 40.0298 25.69 40.0298 25.69C40.0298 25.69 40.0298 30.6025 39.4025 32.9582C39.2329 33.5964 38.8986 34.1789 38.4332 34.6474C37.9677 35.1158 37.3874 35.4538 36.7502 35.6275C34.4048 36.2582 25.0298 36.2582 25.0298 36.2582C25.0298 36.2582 15.6548 36.2582 13.3093 35.6275C12.6722 35.4538 12.0919 35.1158 11.6264 34.6474C11.1609 34.1789 10.8267 33.5964 10.6571 32.9582C10.0298 30.6025 10.0298 25.69 10.0298 25.69C10.0298 25.69 10.0298 20.7775 10.6571 18.4218C10.8267 17.7836 11.1609 17.2011 11.6264 16.7326C12.0919 16.2642 12.6722 15.9262 13.3093 15.7525C15.6548 15.1218 25.0298 15.1218 25.0298 15.1218C25.0298 15.1218 34.4048 15.1218 36.7502 15.7525C37.3874 15.9262 37.9677 16.2642 38.4332 16.7326ZM21.9614 21.2292V30.1508L29.8023 25.69L21.9614 21.2292Z" fill="#F4BB42"/>
</g>
<path d="M50.3807 19.5536H52.375L55.4148 24.8434H55.5398L58.5795 19.5536H60.5739L56.3523 26.6218V31.1899H54.6023V26.6218L50.3807 19.5536ZM64.3338 31.3661C63.5156 31.3661 62.8016 31.1786 62.1918 30.8036C61.5819 30.4286 61.1084 29.904 60.7713 29.2297C60.4342 28.5555 60.2656 27.7676 60.2656 26.8661C60.2656 25.9608 60.4342 25.1691 60.7713 24.4911C61.1084 23.813 61.5819 23.2865 62.1918 22.9115C62.8016 22.5365 63.5156 22.349 64.3338 22.349C65.152 22.349 65.866 22.5365 66.4759 22.9115C67.0857 23.2865 67.5592 23.813 67.8963 24.4911C68.2334 25.1691 68.402 25.9608 68.402 26.8661C68.402 27.7676 68.2334 28.5555 67.8963 29.2297C67.5592 29.904 67.0857 30.4286 66.4759 30.8036C65.866 31.1786 65.152 31.3661 64.3338 31.3661ZM64.3395 29.9399C64.8698 29.9399 65.3092 29.7998 65.6577 29.5195C66.0062 29.2392 66.2637 28.8661 66.4304 28.4002C66.6009 27.9343 66.6861 27.421 66.6861 26.8604C66.6861 26.3036 66.6009 25.7922 66.4304 25.3263C66.2637 24.8566 66.0062 24.4797 65.6577 24.1956C65.3092 23.9115 64.8698 23.7695 64.3395 23.7695C63.8054 23.7695 63.3622 23.9115 63.0099 24.1956C62.6615 24.4797 62.402 24.8566 62.2315 25.3263C62.0649 25.7922 61.9815 26.3036 61.9815 26.8604C61.9815 27.421 62.0649 27.9343 62.2315 28.4002C62.402 28.8661 62.6615 29.2392 63.0099 29.5195C63.3622 29.7998 63.8054 29.9399 64.3395 29.9399ZM75.8267 27.5706V22.4627H77.5312V31.1899H75.8608V29.6786H75.7699C75.5691 30.1445 75.2472 30.5327 74.804 30.8434C74.3646 31.1502 73.8172 31.3036 73.1619 31.3036C72.6013 31.3036 72.1051 31.1805 71.6733 30.9343C71.2453 30.6843 70.9081 30.3149 70.6619 29.8263C70.4195 29.3377 70.2983 28.7335 70.2983 28.0138V22.4627H71.9972V27.8093C71.9972 28.404 72.1619 28.8774 72.4915 29.2297C72.821 29.582 73.2491 29.7581 73.7756 29.7581C74.0938 29.7581 74.41 29.6786 74.7244 29.5195C75.0426 29.3604 75.3059 29.1199 75.5142 28.7979C75.7263 28.4759 75.8305 28.0668 75.8267 27.5706ZM83.8878 22.4627V23.8263H79.1207V22.4627H83.8878ZM80.3991 20.3718H82.098V28.6274C82.098 28.957 82.1473 29.2051 82.2457 29.3718C82.3442 29.5346 82.4711 29.6464 82.6264 29.707C82.7855 29.7638 82.9579 29.7922 83.1435 29.7922C83.2798 29.7922 83.3991 29.7827 83.5014 29.7638C83.6037 29.7449 83.6832 29.7297 83.7401 29.7184L84.0469 31.1218C83.9484 31.1596 83.8082 31.1975 83.6264 31.2354C83.4446 31.2771 83.2173 31.2998 82.9446 31.3036C82.4976 31.3112 82.081 31.2316 81.6946 31.0649C81.3082 30.8983 80.9957 30.6407 80.7571 30.2922C80.5185 29.9437 80.3991 29.5062 80.3991 28.9797V20.3718ZM91.2955 27.5706V22.4627H93V31.1899H91.3295V29.6786H91.2386C91.0379 30.1445 90.7159 30.5327 90.2727 30.8434C89.8333 31.1502 89.286 31.3036 88.6307 31.3036C88.0701 31.3036 87.5739 31.1805 87.142 30.9343C86.714 30.6843 86.3769 30.3149 86.1307 29.8263C85.8883 29.3377 85.767 28.7335 85.767 28.0138V22.4627H87.4659V27.8093C87.4659 28.404 87.6307 28.8774 87.9602 29.2297C88.2898 29.582 88.7178 29.7581 89.2443 29.7581C89.5625 29.7581 89.8788 29.6786 90.1932 29.5195C90.5114 29.3604 90.7746 29.1199 90.983 28.7979C91.1951 28.4759 91.2992 28.0668 91.2955 27.5706ZM95.419 31.1899V19.5536H97.1179V23.8774H97.2202C97.3187 23.6956 97.4607 23.4854 97.6463 23.2468C97.8319 23.0081 98.0895 22.7998 98.419 22.6218C98.7486 22.4399 99.1842 22.349 99.7259 22.349C100.43 22.349 101.059 22.5271 101.612 22.8831C102.165 23.2392 102.599 23.7524 102.913 24.4229C103.232 25.0934 103.391 25.9002 103.391 26.8434C103.391 27.7865 103.233 28.5952 102.919 29.2695C102.605 29.9399 102.173 30.457 101.624 30.8206C101.074 31.1805 100.447 31.3604 99.7429 31.3604C99.2126 31.3604 98.7789 31.2714 98.4418 31.0934C98.1084 30.9153 97.8471 30.707 97.6577 30.4684C97.4683 30.2297 97.3224 30.0176 97.2202 29.832H97.0781V31.1899H95.419ZM97.0838 26.8263C97.0838 27.4399 97.1728 27.9778 97.3509 28.4399C97.5289 28.9021 97.7865 29.2638 98.1236 29.5252C98.4607 29.7827 98.8736 29.9115 99.3622 29.9115C99.8698 29.9115 100.294 29.7771 100.635 29.5081C100.976 29.2354 101.233 28.8661 101.408 28.4002C101.586 27.9343 101.675 27.4096 101.675 26.8263C101.675 26.2505 101.588 25.7335 101.413 25.2752C101.243 24.8168 100.985 24.4551 100.641 24.1899C100.3 23.9248 99.8736 23.7922 99.3622 23.7922C98.8698 23.7922 98.4531 23.9191 98.1122 24.1729C97.7751 24.4267 97.5194 24.7809 97.3452 25.2354C97.1709 25.6899 97.0838 26.2202 97.0838 26.8263ZM109.06 31.3661C108.2 31.3661 107.459 31.1824 106.838 30.8149C106.221 30.4437 105.743 29.9229 105.406 29.2524C105.073 28.5782 104.906 27.7884 104.906 26.8831C104.906 25.9892 105.073 25.2013 105.406 24.5195C105.743 23.8377 106.213 23.3055 106.815 22.9229C107.421 22.5403 108.13 22.349 108.94 22.349C109.433 22.349 109.91 22.4305 110.372 22.5934C110.834 22.7562 111.249 23.0119 111.616 23.3604C111.984 23.7089 112.274 24.1615 112.486 24.7184C112.698 25.2714 112.804 25.9437 112.804 26.7354V27.3377H105.866V26.0649H111.139C111.139 25.618 111.048 25.2221 110.866 24.8774C110.685 24.529 110.429 24.2543 110.099 24.0536C109.774 23.8528 109.391 23.7524 108.952 23.7524C108.474 23.7524 108.058 23.8699 107.702 24.1047C107.349 24.3358 107.077 24.6388 106.884 25.0138C106.694 25.385 106.599 25.7884 106.599 26.224V27.2184C106.599 27.8017 106.702 28.2979 106.906 28.707C107.115 29.1161 107.404 29.4286 107.776 29.6445C108.147 29.8566 108.58 29.9627 109.077 29.9627C109.399 29.9627 109.692 29.9172 109.957 29.8263C110.223 29.7316 110.452 29.5915 110.645 29.4059C110.838 29.2202 110.986 28.9911 111.088 28.7184L112.696 29.0081C112.567 29.4816 112.336 29.8964 112.003 30.2524C111.673 30.6047 111.259 30.8793 110.759 31.0763C110.262 31.2695 109.696 31.3661 109.06 31.3661Z" fill="white"/>
</g>
<defs>
<filter id="filter0_b_22_301" x="-44" y="-43.3101" width="212" height="138" filterUnits="userSpaceOnUse" color-interpolation-filters="sRGB">
<feFlood flood-opacity="0" result="BackgroundImageFix"/>
<feGaussianBlur in="BackgroundImageFix" stdDeviation="22"/>
<feComposite in2="SourceAlpha" operator="in" result="effect1_backgroundBlur_22_301"/>
<feBlend mode="normal" in="SourceGraphic" in2="effect1_backgroundBlur_22_301" result="shape"/>
</filter>
<clipPath id="clip0_22_301">
<rect width="30" height="30" fill="white" transform="translate(10 10.6899)"/>
</clipPath>
</defs>
</svg>
